<svg width="116" height="86" viewBox="0 0 116 86" fill="none" xmlns="http://www.w3.org/2000/svg">
<path d="M78.297 85.0393L54.8079 12.3151L51.6158 7.56008L42.5213 4.11034L31.3188 12.3151L43.0633 48.6772L54.8079 85.0393H78.297Z" fill="black"/>
<path d="M116 85.0472L92.5109 12.323L89.3188 7.56796L80.2243 4.11823L69.0218 12.323L92.5109 85.0472H116Z" fill="black"/>
<path d="M23.4891 85.0393H0L23.4891 12.3151C27.0314 2.47776 44.4196 -9.60987 54.8079 12.3151C50.4357 7.2181 48.6238 7.73152 47.0986 12.4083L23.4891 85.0393Z" fill="black"/>
<path d="M61.1921 85.0472H37.703L61.1921 12.323C64.7345 2.48564 82.1226 -9.60199 92.5109 12.323C88.1387 7.22597 86.3268 7.73939 84.8017 12.4162L61.1921 85.0472Z" fill="black"/>
</svg>
